<mxfile host="Electron" modified="2025-10-16T01:37:02.434Z" agent="Mozilla/5.0 (Windows NT 10.0; Win64; x64) AppleWebKit/537.36 (KHTML, like Gecko) draw.io/22.0.3 Chrome/114.0.5735.289 Electron/25.8.4 Safari/537.36" etag="BBzrHrKC-Fop5wYQnmZd" version="22.0.3" type="device">
  <diagram name="ページ1" id="fZIu0VBVls7YeG0eztEn">
    <mxGraphModel dx="958" dy="606" grid="1" gridSize="10" guides="1" tooltips="1" connect="1" arrows="1" fold="1" page="1" pageScale="1" pageWidth="827" pageHeight="1169" math="0" shadow="0">
      <root>
        <mxCell id="0" />
        <mxCell id="1" parent="0" />
        <mxCell id="sjXpVbs3sc31-I0cj-Pe-1" value="storage_integration" style="rounded=0;whiteSpace=wrap;html=1;" parent="1" vertex="1">
          <mxGeometry x="80" y="200" width="120" height="80" as="geometry" />
        </mxCell>
        <mxCell id="sjXpVbs3sc31-I0cj-Pe-2" value="IAM role" style="rounded=0;whiteSpace=wrap;html=1;" parent="1" vertex="1">
          <mxGeometry x="400" y="200" width="120" height="80" as="geometry" />
        </mxCell>
        <mxCell id="sjXpVbs3sc31-I0cj-Pe-3" value="作成時にarnが必要" style="endArrow=classic;html=1;rounded=0;exitX=1;exitY=0.25;exitDx=0;exitDy=0;entryX=0;entryY=0.25;entryDx=0;entryDy=0;" parent="1" source="sjXpVbs3sc31-I0cj-Pe-1" target="sjXpVbs3sc31-I0cj-Pe-2" edge="1">
          <mxGeometry width="50" height="50" relative="1" as="geometry">
            <mxPoint x="390" y="340" as="sourcePoint" />
            <mxPoint x="440" y="290" as="targetPoint" />
          </mxGeometry>
        </mxCell>
        <mxCell id="sjXpVbs3sc31-I0cj-Pe-5" value="作成時に下記が必要&lt;br&gt;storage_aws_iam_user_arn&lt;br&gt;storage_aws_external_id" style="endArrow=classic;html=1;rounded=0;entryX=1;entryY=0.75;entryDx=0;entryDy=0;exitX=0;exitY=0.75;exitDx=0;exitDy=0;" parent="1" source="sjXpVbs3sc31-I0cj-Pe-2" target="sjXpVbs3sc31-I0cj-Pe-1" edge="1">
          <mxGeometry width="50" height="50" relative="1" as="geometry">
            <mxPoint x="390" y="340" as="sourcePoint" />
            <mxPoint x="440" y="290" as="targetPoint" />
          </mxGeometry>
        </mxCell>
        <mxCell id="sjXpVbs3sc31-I0cj-Pe-6" value="" style="shape=flexArrow;endArrow=classic;html=1;rounded=0;" parent="1" edge="1">
          <mxGeometry width="50" height="50" relative="1" as="geometry">
            <mxPoint x="300" y="320" as="sourcePoint" />
            <mxPoint x="300" y="400" as="targetPoint" />
          </mxGeometry>
        </mxCell>
        <mxCell id="sjXpVbs3sc31-I0cj-Pe-7" value="AWS" style="text;html=1;align=center;verticalAlign=middle;resizable=0;points=[];autosize=1;strokeColor=none;fillColor=none;" parent="1" vertex="1">
          <mxGeometry x="400" y="160" width="50" height="30" as="geometry" />
        </mxCell>
        <mxCell id="sjXpVbs3sc31-I0cj-Pe-8" value="Snowflake" style="text;html=1;align=center;verticalAlign=middle;resizable=0;points=[];autosize=1;strokeColor=none;fillColor=none;" parent="1" vertex="1">
          <mxGeometry x="80" y="160" width="80" height="30" as="geometry" />
        </mxCell>
        <mxCell id="8cx2vyB8eHNDKP3coWS0-1" value="storage_integration&lt;br&gt;&lt;br&gt;作成時にarnを作成" style="rounded=0;whiteSpace=wrap;html=1;" vertex="1" parent="1">
          <mxGeometry x="80" y="430" width="120" height="80" as="geometry" />
        </mxCell>
        <mxCell id="8cx2vyB8eHNDKP3coWS0-2" value="IAM role" style="rounded=0;whiteSpace=wrap;html=1;" vertex="1" parent="1">
          <mxGeometry x="400" y="430" width="120" height="80" as="geometry" />
        </mxCell>
        <mxCell id="8cx2vyB8eHNDKP3coWS0-4" value="作成時に下記が必要&lt;br&gt;storage_aws_iam_user_arn&lt;br&gt;storage_aws_external_id" style="endArrow=classic;html=1;rounded=0;entryX=1;entryY=0.75;entryDx=0;entryDy=0;exitX=0;exitY=0.75;exitDx=0;exitDy=0;" edge="1" parent="1" source="8cx2vyB8eHNDKP3coWS0-2" target="8cx2vyB8eHNDKP3coWS0-1">
          <mxGeometry width="50" height="50" relative="1" as="geometry">
            <mxPoint x="390" y="570" as="sourcePoint" />
            <mxPoint x="440" y="520" as="targetPoint" />
          </mxGeometry>
        </mxCell>
        <mxCell id="8cx2vyB8eHNDKP3coWS0-5" value="AWS" style="text;html=1;align=center;verticalAlign=middle;resizable=0;points=[];autosize=1;strokeColor=none;fillColor=none;" vertex="1" parent="1">
          <mxGeometry x="400" y="390" width="50" height="30" as="geometry" />
        </mxCell>
        <mxCell id="8cx2vyB8eHNDKP3coWS0-6" value="Snowflake" style="text;html=1;align=center;verticalAlign=middle;resizable=0;points=[];autosize=1;strokeColor=none;fillColor=none;" vertex="1" parent="1">
          <mxGeometry x="80" y="390" width="80" height="30" as="geometry" />
        </mxCell>
      </root>
    </mxGraphModel>
  </diagram>
</mxfile>
